<?xml version="1.0" encoding="utf-8"?>
<!-- Generator: Adobe Illustrator 16.0.0, SVG Export Plug-In . SVG Version: 6.00 Build 0)  -->
<!DOCTYPE svg PUBLIC "-//W3C//DTD SVG 1.1//EN" "http://www.w3.org/Graphics/SVG/1.1/DTD/svg11.dtd">
<svg version="1.1" id="Layer_1" xmlns="http://www.w3.org/2000/svg" xmlns:xlink="http://www.w3.org/1999/xlink" x="0px" y="0px"
	 width="267px" height="96.884px" viewBox="0 0 267 96.884" enable-background="new 0 0 267 96.884" xml:space="preserve">
<g>
	<path fill="#F4C73D" d="M267.119,96.96c-88.96,0-177.919,0-266.879,0c-0.006-0.52-0.017-1.039-0.017-1.558
		c0-24.29-0.002-48.581,0-72.871C0.224,15.021,0.234,7.51,0.24,0C89.2,0,178.159,0,267.119,0c-0.023,0.437-0.067,0.874-0.067,1.311
		c-0.003,31.446-0.003,62.891,0,94.337C267.052,96.086,267.096,96.522,267.119,96.96z M70.113,50.457
		c-0.095,0.294-0.162,0.403-0.162,0.514c0,3.879-0.104,7.763,0.044,11.637c0.148,3.862,3.217,6.571,7.165,6.575
		c7.799,0.008,15.598,0.003,23.397,0c0.42-0.001,0.84-0.042,1.242-0.063c0.052-0.244,0.097-0.358,0.097-0.474
		c0.003-8.039,0.067-16.079-0.024-24.117c-0.046-4.093-3.113-6.909-7.212-6.912c-7.759-0.006-15.519-0.002-23.277-0.002
		c-0.434,0-0.868,0-1.345,0c0,2.04,0,3.966,0,5.975c0.583,0,1.059,0,1.535,0c7.079,0,14.159-0.001,21.238,0
		c0.6,0,1.2-0.002,1.8,0.008c0.753,0.014,1.266,0.413,1.287,1.146c0.054,1.869,0.018,3.74,0.018,5.715
		C87.251,50.457,78.706,50.457,70.113,50.457z M108.214,69.098c0.272,0.038,0.425,0.079,0.578,0.079
		c8.199,0.005,16.398,0.054,24.597-0.015c3.913-0.032,6.823-3.127,6.833-7.044c0.014-5.759,0.008-11.519,0.002-17.278
		c-0.004-4.243-3.001-7.222-7.266-7.225c-5.759-0.004-11.519-0.001-17.278-0.001c-0.469,0-0.938,0-1.534,0c0-3.409,0-6.673,0-9.977
		c-2.054,0-3.979,0-5.932,0C108.214,41.49,108.214,55.24,108.214,69.098z M63.013,36.219c0-2.116,0-4.083,0-6.085
		c-0.328-0.02-0.563-0.047-0.799-0.047c-10.36-0.002-20.72-0.024-31.08,0.009c-4.097,0.013-7.089,3.104-7.1,7.268
		c-0.022,8.2-0.021,16.399,0,24.6c0.011,4.328,3.06,7.309,7.427,7.311c10.12,0.006,20.24,0.003,30.36,0
		c0.39,0,0.781-0.033,1.197-0.053c0-2.054,0-4.024,0-6.08c-0.563,0-1.038,0-1.512,0c-9.8,0-19.6,0.001-29.4-0.001
		c-1.691,0-1.948-0.25-1.949-1.924c-0.003-7.68-0.003-15.359,0-23.04c0.001-1.73,0.242-1.957,2.036-1.957
		c9.76-0.001,19.52,0,29.28,0C61.95,36.219,62.427,36.219,63.013,36.219z M160.79,70.092c24.596,0,49.046,0,73.522,0
		c0-14.465,0-28.834,0-43.246c-24.543,0-48.995,0-73.522,0C160.79,41.289,160.79,55.658,160.79,70.092z M145.847,37.772
		c0,10.491,0,20.898,0,31.339c1.976,0,3.874,0,5.82,0c0-10.476,0-20.877,0-31.339C149.725,37.772,147.858,37.772,145.847,37.772z
		 M145.87,27.521c0,2.043,0,3.931,0,5.82c1.991,0,3.881,0,5.804,0c0-1.976,0-3.867,0-5.82
		C149.712,27.521,147.821,27.521,145.87,27.521z"/>
	<path fill-rule="evenodd" clip-rule="evenodd" fill="#FFFFFF" d="M0.24,0C0.234,7.51,0.224,15.021,0.223,22.532
		c-0.002,24.29,0,48.581,0,72.871c0,0.519,0.011,1.038,0.017,1.558c-0.08-0.319-0.229-0.64-0.23-0.959
		C-0.002,82.658,0,69.314,0,55.971C0,37.673-0.001,19.375,0.01,1.078C0.01,0.719,0.16,0.359,0.24,0z"/>
	<path fill-rule="evenodd" clip-rule="evenodd" fill="#FFFFFF" d="M267.119,96.96c-0.023-0.438-0.067-0.874-0.067-1.312
		c-0.003-31.446-0.003-62.892,0-94.337c0-0.437,0.044-0.874,0.067-1.311c0.08,0.32,0.23,0.64,0.23,0.96
		c0.012,13.64,0.01,27.28,0.01,40.92c0,18,0.002,36-0.01,54C267.35,96.24,267.199,96.6,267.119,96.96z"/>
	<path fill-rule="evenodd" clip-rule="evenodd" fill="#FFFFFF" d="M70.113,50.457c8.593,0,17.139,0,25.803,0
		c0-1.975,0.036-3.846-0.018-5.715c-0.021-0.732-0.534-1.132-1.287-1.146c-0.6-0.011-1.2-0.008-1.8-0.008
		c-7.079,0-14.159,0-21.238,0c-0.476,0-0.952,0-1.535,0c0-2.008,0-3.935,0-5.975c0.477,0,0.911,0,1.345,0
		c7.759,0,15.518-0.004,23.277,0.002c4.1,0.003,7.166,2.819,7.212,6.912c0.091,8.038,0.027,16.078,0.024,24.117
		c0,0.115-0.045,0.229-0.097,0.474c-0.401,0.021-0.821,0.062-1.242,0.063c-7.799,0.003-15.599,0.008-23.397,0
		c-3.948-0.004-7.017-2.713-7.165-6.575c-0.148-3.874-0.044-7.758-0.044-11.637C69.951,50.86,70.018,50.751,70.113,50.457z
		 M95.869,63.196c0-2.333,0-4.472,0-6.646c-6.672,0-13.278,0-19.964,0c0,1.639-0.005,3.192,0.001,4.746
		c0.007,1.604,0.29,1.896,1.881,1.897c5.156,0.005,10.312,0.002,15.469,0.002C94.092,63.196,94.927,63.196,95.869,63.196z"/>
	<path fill-rule="evenodd" clip-rule="evenodd" fill="#FFFFFF" d="M108.214,69.098c0-13.857,0-27.607,0-41.46
		c1.953,0,3.877,0,5.932,0c0,3.304,0,6.568,0,9.977c0.596,0,1.065,0,1.534,0c5.759,0,11.519-0.003,17.278,0.001
		c4.265,0.003,7.262,2.981,7.266,7.225c0.006,5.759,0.012,11.519-0.002,17.278c-0.01,3.917-2.92,7.012-6.833,7.044
		c-8.198,0.068-16.397,0.02-24.597,0.015C108.64,69.177,108.487,69.136,108.214,69.098z M124.322,43.589
		c-2.798,0-5.597-0.007-8.396,0.003c-1.437,0.005-1.772,0.335-1.774,1.765c-0.008,5.356-0.008,10.714-0.001,16.07
		c0.001,1.435,0.334,1.766,1.769,1.767c5.517,0.007,11.034,0.007,16.55,0.001c1.442-0.002,1.774-0.329,1.776-1.76
		c0.008-5.357,0.008-10.714,0-16.071c-0.002-1.43-0.342-1.767-1.77-1.771C129.759,43.582,127.041,43.589,124.322,43.589z"/>
	<path fill-rule="evenodd" clip-rule="evenodd" fill="#FFFFFF" d="M63.013,36.219c-0.585,0-1.062,0-1.54,0c-9.76,0-19.52,0-29.28,0
		c-1.794,0-2.035,0.227-2.036,1.957c-0.003,7.68-0.003,15.36,0,23.04c0,1.674,0.258,1.924,1.949,1.924
		c9.8,0.002,19.6,0.001,29.4,0.001c0.474,0,0.948,0,1.512,0c0,2.056,0,4.026,0,6.08c-0.417,0.02-0.807,0.053-1.197,0.053
		c-10.12,0.003-20.24,0.006-30.36,0c-4.367-0.002-7.416-2.982-7.427-7.311c-0.021-8.2-0.021-16.4,0-24.6
		c0.011-4.164,3.003-7.255,7.1-7.268c10.36-0.034,20.72-0.011,31.08-0.009c0.236,0,0.471,0.027,0.799,0.047
		C63.013,32.135,63.013,34.103,63.013,36.219z"/>
	<path fill-rule="evenodd" clip-rule="evenodd" fill="#FFFFFF" d="M160.79,70.092c0-14.434,0-28.803,0-43.246
		c24.527,0,48.979,0,73.522,0c0,14.411,0,28.781,0,43.246C209.836,70.092,185.386,70.092,160.79,70.092z M232.163,67.943
		c0-12.994,0-25.932,0-38.885c-23.12,0-46.166,0-69.205,0c0,13.013,0,25.915,0,38.885C186.052,67.943,209.07,67.943,232.163,67.943z
		"/>
	<path fill-rule="evenodd" clip-rule="evenodd" fill="#FFFFFF" d="M145.847,37.772c2.012,0,3.878,0,5.82,0
		c0,10.461,0,20.863,0,31.339c-1.946,0-3.845,0-5.82,0C145.847,58.671,145.847,48.264,145.847,37.772z"/>
	<path fill-rule="evenodd" clip-rule="evenodd" fill="#FFFFFF" d="M145.87,27.521c1.951,0,3.842,0,5.804,0c0,1.953,0,3.844,0,5.82
		c-1.923,0-3.812,0-5.804,0C145.87,31.452,145.87,29.564,145.87,27.521z"/>
	<path fill-rule="evenodd" clip-rule="evenodd" fill="#F4C73D" d="M95.869,63.196c-0.942,0-1.777,0-2.612,0
		c-5.156,0-10.312,0.003-15.469-0.002c-1.591-0.002-1.875-0.293-1.881-1.897c-0.006-1.554-0.001-3.107-0.001-4.746
		c6.686,0,13.292,0,19.964,0C95.869,58.725,95.869,60.863,95.869,63.196z"/>
	<path fill-rule="evenodd" clip-rule="evenodd" fill="#F4C73D" d="M124.322,43.589c2.718,0,5.437-0.007,8.155,0.003
		c1.428,0.005,1.768,0.342,1.77,1.771c0.008,5.357,0.008,10.713,0,16.071c-0.002,1.431-0.334,1.758-1.776,1.76
		c-5.517,0.006-11.034,0.006-16.55-0.001c-1.435-0.001-1.768-0.332-1.769-1.767c-0.007-5.356-0.007-10.714,0.001-16.07
		c0.002-1.43,0.338-1.76,1.774-1.765C118.726,43.582,121.524,43.589,124.322,43.589z"/>
	<path fill-rule="evenodd" clip-rule="evenodd" fill="#F4C73D" d="M232.163,67.943c-23.093,0-46.111,0-69.205,0
		c0-12.97,0-25.872,0-38.885c23.039,0,46.085,0,69.205,0C232.163,42.012,232.163,54.949,232.163,67.943z M211.021,57.574
		c0.037,0.078,0.015,0.043,0.004,0.006c-2.405-7.984-4.804-15.97-7.23-23.947c-0.108-0.355-0.471-0.892-0.729-0.901
		c-2.138-0.073-4.28-0.042-6.512-0.042c0.098,0.456,0.132,0.772,0.231,1.066c3.419,10.09,6.85,20.176,10.257,30.271
		c0.214,0.635,0.518,0.87,1.196,0.854c1.878-0.046,3.76-0.066,5.636,0.007c0.855,0.033,1.167-0.31,1.42-1.062
		c3.359-9.943,6.749-19.876,10.125-29.814c0.133-0.393,0.208-0.806,0.341-1.331c-2.113,0-4.068,0.032-6.021-0.017
		c-0.732-0.018-1.046,0.236-1.255,0.934c-0.734,2.445-1.558,4.863-2.315,7.301C214.442,46.458,212.734,52.022,211.021,57.574z
		 M192.371,38.487c0-1.973,0-3.825,0-5.742c-8.089,0-16.104,0-24.199,0c0,1.907,0,3.763,0,5.759c2.877,0,5.696,0,8.683,0
		c0,8.858,0,17.579,0,26.261c2.386,0,4.6,0,6.957,0c0-8.786,0-17.474,0-26.278C186.739,38.487,189.523,38.487,192.371,38.487z"/>
	<path fill-rule="evenodd" clip-rule="evenodd" fill="#FFFFFF" d="M211.021,57.574c1.713-5.552,3.421-11.116,5.147-16.675
		c0.758-2.438,1.581-4.856,2.315-7.301c0.209-0.697,0.522-0.952,1.255-0.934c1.952,0.048,3.907,0.017,6.021,0.017
		c-0.133,0.525-0.208,0.938-0.341,1.331c-3.376,9.938-6.766,19.871-10.125,29.814c-0.253,0.752-0.564,1.095-1.42,1.062
		c-1.876-0.073-3.758-0.053-5.636-0.007c-0.679,0.017-0.982-0.219-1.196-0.854c-3.407-10.095-6.838-20.181-10.257-30.271
		c-0.1-0.294-0.134-0.61-0.231-1.066c2.231,0,4.374-0.031,6.512,0.042c0.259,0.009,0.621,0.546,0.729,0.901
		c2.427,7.977,4.825,15.963,7.23,23.947C211.036,57.617,211.059,57.652,211.021,57.574z"/>
	<path fill-rule="evenodd" clip-rule="evenodd" fill="#FFFFFF" d="M192.371,38.487c-2.848,0-5.632,0-8.56,0
		c0,8.805,0,17.492,0,26.278c-2.357,0-4.571,0-6.957,0c0-8.683,0-17.403,0-26.261c-2.986,0-5.806,0-8.683,0c0-1.996,0-3.852,0-5.759
		c8.096,0,16.11,0,24.199,0C192.371,34.662,192.371,36.515,192.371,38.487z"/>
</g>
</svg>
